<svg height="511pt" viewBox="-34 0 511 511.99961" width="511pt" xmlns="http://www.w3.org/2000/svg"><path d="m179.675781 298.695312 42.660157 42.660157 25.59375-17.0625v-166.574219c39.980468-14.152344 60.910156-58.035156 46.757812-98.015625-14.15625-39.976563-58.039062-60.910156-98.015625-46.753906-39.980469 14.152343-60.910156 58.039062-46.757813 98.015625 8.789063 24.820312 29.683594 43.40625 55.355469 49.246094v10.878906h-.375l-25.21875 25.21875 25.59375 25.597656-25.40625 25.410156 25.40625 25.40625v.375zm17.0625-213.300781c0-14.136719 11.460938-25.597656 25.597657-25.597656 14.136718 0 25.59375 11.460937 25.59375 25.597656s-11.457032 25.59375-25.59375 25.59375c-14.136719 0-25.597657-11.457031-25.597657-25.59375zm0 0" fill="#bddbff"/><path d="m154.078125 469.339844c-4.710937 0-8.53125 3.820312-8.53125 8.53125v25.597656h153.578125v-25.597656c0-4.710938-3.820312-8.53125-8.53125-8.53125zm0 0" fill="#bddbff"/><g fill="#3d9ae2"><path d="m256.464844 85.394531c0-18.847656-15.28125-34.128906-34.128906-34.128906-18.847657 0-34.128907 15.277344-34.128907 34.128906 0 18.847657 15.277344 34.128907 34.128907 34.128907 18.847656 0 34.128906-15.28125 34.128906-34.128907zm-34.128906 17.0625c-9.425782 0-17.066407-7.640625-17.066407-17.0625 0-9.425781 7.640625-17.066406 17.066407-17.066406 9.421874 0 17.0625 7.640625 17.0625 17.066406 0 9.421875-7.640626 17.0625-17.0625 17.0625zm0 0"/><path d="m401.507812 102.457031h-85.320312v17.066407h85.320312c14.136719 0 25.597657 11.457031 25.597657 25.59375v238.898437c0 14.136719-11.460938 25.597656-25.597657 25.597656h-358.347656c-14.136718 0-25.597656-11.460937-25.597656-25.597656v-238.898437c0-14.136719 11.460938-25.59375 25.597656-25.59375h85.320313v-17.066407h-85.320313c-23.550781.027344-42.632812 19.113281-42.660156 42.660157v238.898437c.027344 23.550781 19.109375 42.632813 42.660156 42.660156h110.917969v34.128907c-9.421875 0-17.0625 7.640624-17.0625 17.066406v17.0625h-25.597656v17.066406h221.835937v-17.066406h-25.597656v-17.0625c0-9.425782-7.640625-17.066406-17.0625-17.066406v-34.125h110.914062c23.550782-.03125 42.632813-19.113282 42.664063-42.660157v-238.902343c-.03125-23.546876-19.113281-42.632813-42.664063-42.660157zm-247.429687 392.476563v-17.0625h136.515625v17.0625zm119.449219-34.128906h-102.386719v-34.125h102.386719zm0 0"/><path d="m137.015625 153.648438v-17.0625h-93.855469c-4.710937 0-8.53125 3.820312-8.53125 8.53125v204.773437c0 4.710937 3.820313 8.53125 8.53125 8.53125h358.347656c4.714844 0 8.535157-3.820313 8.535157-8.53125v-204.773437c0-4.710938-3.820313-8.53125-8.535157-8.53125h-102.382812v17.0625h93.851562v187.707031h-34.128906v-127.980469c0-14.136719-11.460937-25.597656-25.59375-25.597656h-59.726562v17.066406h59.726562c4.710938 0 8.53125 3.820312 8.53125 8.53125v25.597656h-68.257812v17.0625h68.257812v85.320313h-104.09375l14.949219-9.964844c2.382813-1.574219 3.816406-4.242187 3.824219-7.097656v-160.769531c43.175781-18.875 62.878906-69.175782 44.007812-112.351563-18.871094-43.179687-69.171875-62.878906-112.351562-44.007813-43.175782 18.871094-62.878906 69.171876-44.007813 112.351563 9.886719 22.613281 29.078125 39.839844 52.625 47.230469l-23.035156 23.5c-3.332031 3.332031-3.332031 8.730468 0 12.0625l19.539063 19.597656-19.410157 19.410156c-3.332031 3.332032-3.332031 8.734375 0 12.066406l19.5625 19.5625-19.75 19.753907c-3.332031 3.332031-3.332031 8.730469 0 12.0625l36.625 36.59375h-107.382812v-85.320313h51.191406v-17.0625h-51.191406v-25.597656c0-4.710938 3.820312-8.53125 8.53125-8.53125h51.191406v-17.066406h-51.191406c-14.136719 0-25.597657 11.460937-25.597657 25.597656v127.980469h-34.128906v-187.707031zm74.289063 125.484374c1.613281-1.742187 2.507812-4.03125 2.5-6.40625-.003907-2.265624-.902344-4.433593-2.5-6.035156l-19.378907-19.375 19.378907-19.375c1.601562-1.625 2.5-3.820312 2.5-6.101562-.003907-2.261719-.902344-4.433594-2.5-6.03125l-19.53125-19.496094 17.839843-17.832031c2.609375-1.542969 4.207031-4.359375 4.191407-7.390625v-10.871094c.003906-3.984375-2.753907-7.441406-6.640626-8.328125-36.785156-8.351563-59.832031-44.945313-51.476562-81.730469 8.355469-36.78125 44.945312-59.828125 81.730469-51.476562 36.785156 8.355468 59.832031 44.949218 51.476562 81.730468-5.1875 22.847657-21.726562 41.441407-43.8125 49.261719-3.40625 1.207031-5.683593 4.429688-5.683593 8.042969v162.007812l-15.980469 10.648438-31.679688-31.679688zm0 0"/><path d="m213.804688 375.484375h17.0625v17.066406h-17.0625zm0 0"/><path d="m111.417969 213.375h17.0625v17.066406h-17.0625zm0 0"/><path d="m145.546875 213.375h17.0625v17.066406h-17.0625zm0 0"/></g></svg>